<svg width="30" height="30" viewBox="0 0 30 30" fill="none" xmlns="http://www.w3.org/2000/svg">
<path d="M8.51438 22.7857L22.3422 8.95781C22.8176 8.48248 22.8353 7.72234 22.3815 7.26861C21.9278 6.81488 21.1677 6.83256 20.6923 7.3079L6.86446 21.1358C6.38913 21.6111 6.37145 22.3712 6.82518 22.825C7.2789 23.2787 8.03904 23.261 8.51438 22.7857Z" fill="white"/>
<path d="M20.6923 22.7857L6.86446 8.95781C6.38913 8.48248 6.37145 7.72234 6.82518 7.26861C7.2789 6.81489 8.03904 6.83257 8.51438 7.3079L22.3422 21.1358C22.8176 21.6111 22.8353 22.3712 22.3815 22.825C21.9278 23.2787 21.1677 23.261 20.6923 22.7857Z" fill="white"/>
</svg>
