<!-- icon666.com - MILLIONS vector ICONS FREE --><svg version="1.1" id="Layer_1" xmlns="http://www.w3.org/2000/svg" xmlns:xlink="http://www.w3.org/1999/xlink" x="0px" y="0px" viewBox="0 0 512 512" style="enable-background:new 0 0 512 512;" xml:space="preserve"><g><g><path d="M423.03,451.236H171.46c-4.466,0-8.084,3.618-8.084,8.084c0,4.466,3.618,8.084,8.084,8.084H423.03 c4.466,0,8.084-3.619,8.084-8.084C431.115,454.854,427.495,451.236,423.03,451.236z"></path></g></g><g><g><path d="M433.297,66.011c-2.643-15.012-16.896-24.939-33.399-36.434c-1.707-1.19-3.444-2.399-5.2-3.636l-3.784-2.667 c-1.752-1.235-3.472-2.462-5.164-3.669C371.005,9.087,358.272,0,344.873,0c-10.228,0-19.277,5.478-26.891,16.281l-15.928,22.598 l-34.55,49.011L96.772,330.09c-0.012,0.017-0.025,0.033-0.038,0.051c-0.005,0.009-0.011,0.017-0.016,0.026l-1.434,2.034 c-0.183,0.251-0.351,0.514-0.506,0.787c-0.024,0.043-0.043,0.087-0.067,0.129c-0.101,0.186-0.198,0.375-0.285,0.571 c-0.044,0.099-0.079,0.199-0.119,0.3c-0.056,0.142-0.114,0.282-0.163,0.429c-0.051,0.151-0.089,0.304-0.13,0.458 c-0.027,0.1-0.058,0.199-0.081,0.301c-0.045,0.199-0.078,0.4-0.107,0.602c-0.009,0.058-0.023,0.113-0.03,0.171l-0.006,0.048 c-0.001,0.011-0.003,0.021-0.004,0.031l-15.439,122.28c-0.003,0.024-0.001,0.049-0.004,0.072c-0.036,0.309-0.059,0.622-0.059,0.94 c0.001,0.018,0.003,0.035,0.003,0.053c0,0.068,0.008,0.134,0.01,0.201c0.009,0.272,0.03,0.54,0.065,0.805 c0.012,0.092,0.026,0.181,0.041,0.272c0.045,0.272,0.103,0.539,0.175,0.801c0.014,0.053,0.026,0.107,0.041,0.16 c0.096,0.323,0.209,0.638,0.343,0.943c0.017,0.039,0.038,0.075,0.055,0.113c0.119,0.261,0.252,0.513,0.398,0.759 c0.042,0.071,0.084,0.141,0.128,0.211c0.16,0.251,0.33,0.495,0.515,0.727c0.021,0.025,0.037,0.052,0.057,0.077 c0.206,0.251,0.43,0.486,0.664,0.71c0.061,0.059,0.126,0.115,0.19,0.172c0.205,0.184,0.418,0.358,0.64,0.521 c0.036,0.026,0.066,0.057,0.102,0.083c0.014,0.01,0.029,0.016,0.043,0.026c0.307,0.214,0.632,0.404,0.968,0.576 c0.057,0.029,0.114,0.055,0.171,0.083c0.667,0.319,1.384,0.548,2.137,0.674c0.078,0.013,0.155,0.025,0.234,0.036 c0.362,0.05,0.729,0.084,1.104,0.084h59.22c4.466,0,8.084-3.619,8.084-8.084s-3.618-8.084-8.084-8.084h-25.333l79.808-40.376 c1.284-0.65,2.315-1.597,3.062-2.713c0.028-0.038,0.06-0.07,0.087-0.109l1.319-1.871c0.005-0.009,0.013-0.015,0.018-0.024 c0.014-0.019,0.026-0.04,0.04-0.06l129.035-183.048c2.573-3.65,1.7-8.692-1.95-11.265c-3.651-2.573-8.692-1.7-11.265,1.95 L205.72,376.422c-1.909-3.235-4.51-6.128-7.773-8.429c-3.211-2.262-6.793-3.773-10.536-4.5L339.129,148.27l18.318,12.912 l-21.933,31.116c-2.573,3.65-1.7,8.693,1.95,11.265c3.651,2.573,8.694,1.7,11.265-1.95l26.591-37.723l34.548-49.01L425.8,92.281 C432.326,83.023,434.778,74.43,433.297,66.011z M276.061,103.813l18.319,12.913L142.653,331.965 c-1.909-3.234-4.509-6.126-7.772-8.426c-3.211-2.264-6.793-3.774-10.536-4.501L276.061,103.813z M96.297,445.237l2.665-21.104 l16.315,11.502L96.297,445.237z M188.633,381.209c5.044,3.556,6.259,10.547,2.719,15.597l-0.375,0.532l-59.363,30.032 L102.86,407.1c-0.521-0.366-1.071-0.655-1.637-0.884l8.364-66.245l0.378-0.537c1.724-2.434,4.291-4.054,7.232-4.564 c2.946-0.51,5.92,0.157,8.367,1.883c5.051,3.56,6.265,10.567,2.706,15.617c-2.572,3.65-1.698,8.693,1.952,11.265 c0.315,0.222,0.643,0.409,0.977,0.58c0.079,0.041,0.157,0.081,0.237,0.119c0.33,0.156,0.664,0.293,1.006,0.402 c0.046,0.014,0.093,0.024,0.139,0.038c0.309,0.092,0.622,0.162,0.937,0.216c0.083,0.014,0.166,0.03,0.249,0.041 c0.346,0.047,0.692,0.075,1.039,0.078c0.022,0,0.044,0.005,0.066,0.005c0.074,0,0.148-0.011,0.222-0.013 c0.193-0.005,0.385-0.015,0.577-0.033c0.113-0.011,0.224-0.026,0.336-0.042c0.182-0.026,0.362-0.058,0.542-0.096 c0.109-0.023,0.218-0.045,0.326-0.072c0.198-0.051,0.393-0.112,0.589-0.177c0.083-0.028,0.166-0.051,0.248-0.081 c0.269-0.1,0.532-0.214,0.791-0.344c0.071-0.036,0.139-0.079,0.209-0.116c0.19-0.101,0.376-0.208,0.557-0.327 c0.092-0.059,0.179-0.123,0.268-0.186c0.157-0.111,0.31-0.226,0.46-0.35c0.087-0.072,0.174-0.144,0.259-0.22 c0.152-0.136,0.297-0.279,0.44-0.428c0.07-0.073,0.142-0.142,0.21-0.219c0.204-0.229,0.4-0.468,0.581-0.724 c1.724-2.447,4.297-4.073,7.246-4.584c2.949-0.509,5.92,0.157,8.368,1.882c5.05,3.56,6.263,10.567,2.702,15.618 c-0.321,0.456-0.59,0.935-0.804,1.426c-1.506,3.445-0.438,7.588,2.756,9.839c0.015,0.011,0.031,0.017,0.045,0.027 c0.299,0.208,0.608,0.386,0.923,0.548c0.084,0.043,0.167,0.086,0.252,0.126c0.327,0.154,0.659,0.291,0.997,0.398 c0.049,0.015,0.099,0.025,0.148,0.04c0.306,0.091,0.615,0.16,0.927,0.213c0.085,0.015,0.17,0.031,0.257,0.043 c0.344,0.047,0.689,0.074,1.034,0.078c0.023,0,0.044,0.005,0.067,0.005c0.077,0,0.153-0.011,0.23-0.013 c0.19-0.005,0.379-0.015,0.568-0.033c0.114-0.011,0.227-0.026,0.341-0.042c0.181-0.026,0.361-0.058,0.54-0.096 c0.109-0.023,0.219-0.045,0.327-0.073c0.198-0.051,0.393-0.112,0.587-0.177c0.083-0.028,0.166-0.051,0.248-0.081 c0.269-0.1,0.534-0.216,0.792-0.345c0.069-0.034,0.135-0.077,0.204-0.113c0.191-0.102,0.378-0.21,0.562-0.329 c0.092-0.059,0.181-0.124,0.271-0.188c0.155-0.11,0.308-0.224,0.456-0.347c0.089-0.073,0.178-0.148,0.264-0.225 c0.147-0.131,0.288-0.272,0.427-0.415c0.074-0.078,0.152-0.152,0.224-0.233c0.179-0.202,0.348-0.413,0.51-0.636 c0.022-0.029,0.045-0.054,0.067-0.083c0.003-0.004,0.006-0.01,0.01-0.014c1.724-2.438,4.292-4.063,7.237-4.572 C183.212,378.817,186.185,379.485,188.633,381.209z M174.186,354.192c-1.909-3.233-4.508-6.125-7.771-8.425 c-3.211-2.264-6.794-3.774-10.537-4.501L307.593,126.04l18.319,12.913L174.186,354.192z M366.762,147.967l-24.919-17.565 c-0.002-0.001-0.004-0.003-0.006-0.005s-0.004-0.003-0.008-0.004l-4.886-3.445l-26.624-18.768 c-0.005-0.004-0.01-0.009-0.015-0.012c-0.005-0.004-0.011-0.006-0.017-0.011l-24.909-17.559l25.232-35.795l64.273,45.308 l17.11,12.062L366.762,147.967z M412.584,82.967l-11.275,15.992l-40.692-28.685l-40.692-28.685l11.271-15.992 c5.956-8.451,10.659-9.428,13.676-9.428c8.221,0,19.522,8.063,31.486,16.6c1.717,1.224,3.463,2.471,5.241,3.723l3.783,2.667 c1.779,1.254,3.541,2.481,5.274,3.688c13.543,9.433,25.239,17.579,26.715,25.97C418.069,72.777,416.503,77.407,412.584,82.967z"></path></g></g><g><g><path d="M423.03,495.832H86.371c-4.466,0-8.084,3.619-8.084,8.084c0,4.466,3.618,8.084,8.084,8.084h336.66 c4.466,0,8.084-3.618,8.084-8.084C431.115,499.45,427.495,495.832,423.03,495.832z"></path></g></g></svg>