<svg width="249" height="94" viewBox="0 0 249 94" fill="none" xmlns="http://www.w3.org/2000/svg">
<path fill-rule="evenodd" clip-rule="evenodd" d="M178.07 51.5444C178.07 61.9472 169.556 70.4247 159.039 70.4247C148.522 70.4247 140.039 61.9782 140.039 51.5444V19.0938H147.645V51.5444C147.645 57.786 152.747 62.8788 159.039 62.8788C165.33 62.8788 170.432 57.8171 170.432 51.5444C170.432 45.2716 165.33 40.2099 159.039 40.2099C155.69 40.2099 152.685 41.6384 150.588 43.9053V34.6204C153.123 33.3782 156.003 32.664 159.039 32.664C169.556 32.664 178.07 41.1105 178.07 51.5444Z" fill="white"/>
<path fill-rule="evenodd" clip-rule="evenodd" d="M93.3744 70.1843H85.7683V66.6443V51.5524C85.7683 45.3107 80.6662 40.2491 74.3747 40.2491C68.0832 40.2491 62.9811 45.3107 62.9811 51.5524C62.9811 57.7941 68.0832 62.8558 74.3747 62.8558C77.7239 62.8558 80.7288 61.4273 82.826 59.1605V68.4454C80.2906 69.6875 77.4109 70.4017 74.3747 70.4017C63.8889 70.4017 55.375 61.9552 55.375 51.5524C55.375 41.1496 63.8889 32.7031 74.3747 32.7031C84.8606 32.7031 93.3744 41.1496 93.3744 51.5524V70.1843Z" fill="white"/>
<path fill-rule="evenodd" clip-rule="evenodd" d="M121.137 51.5522L133.595 70.4015H124.111L116.411 58.7255L108.68 70.4015H99.1953L111.653 51.5522L99.1953 32.6719H108.68L116.411 44.3789L124.111 32.6719H133.595L121.137 51.5522Z" fill="white"/>
<path fill-rule="evenodd" clip-rule="evenodd" d="M227.836 32.7266C238.322 32.7266 246.835 41.173 246.835 51.5759H239.261C239.261 45.3031 234.127 40.2104 227.804 40.2104C221.482 40.2104 216.348 45.3031 216.348 51.5759H208.773C208.836 41.173 217.35 32.7266 227.836 32.7266Z" fill="white"/>
<path d="M204.21 33.6982C202.77 33.2014 201.236 32.9219 199.64 32.9219C197.324 32.9219 195.101 33.4808 193.161 34.4745V32.9219H185.555V46.8958V70.4342H193.161V46.8958C193.161 45.1258 193.881 43.5421 195.07 42.362C196.228 41.2131 197.856 40.4678 199.64 40.4678C201.424 40.4678 203.052 41.182 204.21 42.331V33.6982Z" fill="white"/>
<path d="M48.9222 46.8958V70.4342H41.316V46.8958C41.316 45.1258 40.5961 43.5421 39.4067 42.362C38.2172 41.2131 36.6209 40.4678 34.8367 40.4678C33.0525 40.4678 31.4249 41.182 30.2668 42.331H30.2355C29.0773 43.48 28.3574 45.0947 28.3574 46.8648V70.4031H20.7825V46.8648C20.7825 45.0947 20.0626 43.48 18.9045 42.331C17.7463 41.182 16.1187 40.4678 14.3345 40.4678C12.5504 40.4678 10.954 41.182 9.76459 42.362C9.20117 42.921 8.73166 43.5731 8.41865 44.3184V70.4342H0.8125V32.9219H8.41865V34.2261C10.2341 33.3877 12.2061 32.9219 14.3345 32.9219C18.1846 32.9219 21.6903 34.5056 24.257 37.0209L24.6013 37.3625L24.9456 37.0209C27.5123 34.5056 31.018 32.9219 34.868 32.9219C38.7493 32.9219 42.255 34.5056 44.8217 37.0209C47.3571 39.5362 48.9222 43.0452 48.9222 46.8958Z" fill="white"/>
<path d="M210.338 55.5312C210.714 55.5312 211.058 55.6865 211.34 55.966C211.622 56.2455 211.747 56.5871 211.747 56.9907C211.747 57.3944 211.622 57.736 211.34 58.0155C211.058 58.295 210.745 58.4192 210.338 58.4192C209.869 58.4192 209.525 58.2329 209.305 57.8602V59.4439H208.836V55.6244H209.305V56.0902C209.556 55.7176 209.9 55.5312 210.338 55.5312ZM210.307 57.9845C210.589 57.9845 210.808 57.8913 210.996 57.705C211.184 57.5187 211.277 57.2702 211.277 56.9907C211.277 56.7113 211.184 56.4939 210.996 56.2765C210.808 56.0902 210.589 55.997 210.307 55.997C210.025 55.997 209.806 56.0902 209.587 56.2765C209.399 56.4628 209.305 56.7113 209.305 56.9907C209.305 57.2702 209.399 57.4876 209.587 57.705C209.775 57.8913 210.025 57.9845 210.307 57.9845ZM215.002 57.2081H212.686C212.749 57.4565 212.842 57.6429 213.03 57.7671C213.218 57.8913 213.437 57.9845 213.688 57.9845C214.063 57.9845 214.314 57.8602 214.501 57.5808L214.908 57.7981C214.627 58.2018 214.22 58.4192 213.688 58.4192C213.249 58.4192 212.905 58.295 212.623 58.0155C212.342 57.736 212.216 57.3944 212.216 56.9907C212.216 56.5871 212.342 56.2144 212.623 55.966C212.905 55.6865 213.249 55.5623 213.656 55.5623C214.063 55.5623 214.408 55.7176 214.658 55.997C214.908 56.2765 215.034 56.6181 215.034 57.0218C215.002 57.0529 215.002 57.146 215.002 57.2081ZM213.625 55.997C213.375 55.997 213.155 56.0591 212.999 56.2144C212.842 56.3697 212.717 56.556 212.686 56.8044H214.533C214.501 56.556 214.376 56.3697 214.22 56.2144C214.063 56.0591 213.875 55.997 213.625 55.997ZM216.536 56.9597L217.913 58.3881H217.319L216.066 57.0839V58.3881H215.597V55.6244H216.066V56.8355L217.256 55.6244H217.882L216.536 56.9597ZM218.633 55.6244H220.699V58.3881H220.23V56.0902H219.134V57.2081C219.134 57.6429 219.04 57.9534 218.852 58.1397C218.664 58.326 218.414 58.3881 218.07 58.3571V57.8913C218.258 57.9223 218.414 57.8602 218.508 57.7671C218.602 57.6429 218.633 57.4565 218.633 57.1771V55.6244ZM223.704 56.0902V55.6244H224.173V58.3881H223.704V57.9223C223.454 58.295 223.109 58.4813 222.671 58.4813C222.264 58.4813 221.951 58.3571 221.669 58.0776C221.388 57.7981 221.262 57.4565 221.262 57.0529C221.262 56.6492 221.388 56.3076 221.669 56.0281C221.951 55.7486 222.264 55.5934 222.671 55.5934C223.109 55.5312 223.454 55.7176 223.704 56.0902ZM222.702 57.9845C222.984 57.9845 223.203 57.8913 223.422 57.705C223.61 57.5187 223.704 57.2702 223.704 56.9907C223.704 56.7113 223.61 56.4939 223.422 56.2765C223.234 56.0902 222.984 55.997 222.702 55.997C222.421 55.997 222.201 56.0902 222.014 56.2765C221.826 56.4628 221.732 56.7113 221.732 56.9907C221.732 57.2702 221.826 57.4876 222.014 57.705C222.201 57.8913 222.452 57.9845 222.702 57.9845ZM227.178 55.6244H227.679V58.3881H227.21V56.4007L226.333 57.7981H226.271L225.394 56.4007V58.3881H224.925V55.6244H225.425L226.302 57.0218L227.178 55.6244ZM230.34 56.7734V55.6244H230.809V58.3881H230.34V57.2392H228.9V58.3881H228.43V55.6244H228.9V56.7734H230.34ZM233.908 58.0155C233.626 58.295 233.282 58.4192 232.875 58.4192C232.468 58.4192 232.124 58.295 231.842 58.0155C231.56 57.736 231.435 57.3944 231.435 56.9907C231.435 56.5871 231.56 56.2455 231.842 55.966C232.124 55.6865 232.468 55.5623 232.875 55.5623C233.282 55.5623 233.626 55.6865 233.908 55.966C234.19 56.2455 234.346 56.5871 234.346 56.9907C234.346 57.3944 234.19 57.736 233.908 58.0155ZM232.875 57.9845C233.157 57.9845 233.376 57.8913 233.564 57.705C233.752 57.5187 233.845 57.2702 233.845 56.9907C233.845 56.7113 233.752 56.4939 233.564 56.2765C233.376 56.0902 233.157 55.997 232.875 55.997C232.593 55.997 232.374 56.0902 232.187 56.2765C231.999 56.4628 231.905 56.7113 231.905 56.9907C231.905 57.2702 231.999 57.4876 232.187 57.705C232.374 57.8913 232.593 57.9845 232.875 57.9845ZM236.976 56.8976H234.941V56.4318H236.976V56.8976ZM208.836 62.3008H211.246V65.0646H210.777V62.7666H209.337V65.0646H208.867L208.836 62.3008ZM213.5 62.2077C213.875 62.2077 214.22 62.363 214.501 62.6424C214.783 62.9219 214.908 63.2635 214.908 63.6672C214.908 64.0709 214.783 64.4125 214.501 64.6919C214.22 64.9714 213.907 65.0956 213.5 65.0956C213.03 65.0956 212.686 64.9093 212.467 64.5367V66.1204H211.997V62.2698H212.467V62.7356C212.686 62.394 213.03 62.2077 213.5 62.2077ZM213.437 64.6609C213.719 64.6609 213.938 64.5677 214.126 64.3814C214.314 64.1951 214.408 63.9467 214.408 63.6672C214.408 63.3877 214.314 63.1703 214.126 62.953C213.938 62.7666 213.719 62.6735 213.437 62.6735C213.155 62.6735 212.936 62.7666 212.717 62.953C212.529 63.1393 212.436 63.3877 212.436 63.6672C212.436 63.9467 212.529 64.164 212.717 64.3814C212.905 64.5677 213.155 64.6609 213.437 64.6609ZM217.819 64.6919C217.538 64.9714 217.193 65.0956 216.786 65.0956C216.379 65.0956 216.035 64.9714 215.753 64.6919C215.472 64.4125 215.347 64.0709 215.347 63.6672C215.347 63.2635 215.472 62.9219 215.753 62.6424C216.035 62.363 216.379 62.2387 216.786 62.2387C217.193 62.2387 217.538 62.363 217.819 62.6424C218.101 62.9219 218.258 63.2635 218.258 63.6672C218.226 64.0709 218.101 64.4125 217.819 64.6919ZM216.786 64.6609C217.068 64.6609 217.287 64.5677 217.475 64.3814C217.663 64.1951 217.757 63.9467 217.757 63.6672C217.757 63.3877 217.663 63.1703 217.475 62.953C217.287 62.7666 217.068 62.6735 216.786 62.6735C216.505 62.6735 216.286 62.7666 216.098 62.953C215.91 63.1393 215.816 63.3877 215.816 63.6672C215.816 63.9467 215.91 64.164 216.098 64.3814C216.254 64.5677 216.505 64.6609 216.786 64.6609ZM221.075 62.3008V64.5988H221.45V65.7788H220.981V65.0335H218.915V65.7788H218.445V64.5988H218.79C218.977 64.3504 219.071 64.0088 219.071 63.574V62.3008H221.075ZM219.322 64.5988H220.605V62.7356H219.51V63.574C219.51 63.9777 219.447 64.3193 219.322 64.5988ZM224.424 62.2077C224.831 62.2077 225.175 62.3319 225.457 62.6114C225.739 62.8909 225.895 63.2324 225.895 63.6361C225.895 64.0398 225.739 64.3814 225.457 64.6609C225.175 64.9404 224.831 65.0646 224.424 65.0646C224.048 65.0646 223.735 64.9404 223.485 64.723C223.203 64.5056 223.047 64.1951 223.015 63.8535H222.514V65.0025H222.045V62.2387H222.514V63.3877H223.015C223.078 63.0461 223.234 62.7356 223.485 62.5182C223.735 62.3319 224.048 62.2077 224.424 62.2077ZM224.424 64.6609C224.706 64.6609 224.925 64.5677 225.112 64.3814C225.3 64.1951 225.394 63.9467 225.394 63.6672C225.394 63.3877 225.3 63.1703 225.112 62.953C224.925 62.7666 224.706 62.6735 224.424 62.6735C224.142 62.6735 223.923 62.7666 223.735 62.953C223.547 63.1393 223.454 63.3877 223.454 63.6672C223.454 63.9467 223.547 64.164 223.735 64.3814C223.892 64.5677 224.142 64.6609 224.424 64.6609ZM227.742 65.1267C227.335 65.1267 226.991 65.0025 226.709 64.723C226.427 64.4435 226.302 64.1019 226.302 63.6982C226.302 63.2945 226.427 62.953 226.709 62.6735C226.991 62.394 227.335 62.2698 227.742 62.2698C228.023 62.2698 228.274 62.3319 228.493 62.4561C228.712 62.5803 228.869 62.7666 228.994 62.984L228.587 63.2014C228.524 63.0461 228.399 62.9219 228.274 62.8598C228.117 62.7666 227.961 62.7356 227.773 62.7356C227.491 62.7356 227.272 62.8287 227.084 63.0151C226.897 63.2014 226.803 63.4498 226.803 63.7293C226.803 64.0088 226.897 64.2261 227.084 64.4125C227.272 64.5988 227.491 64.6919 227.773 64.6919C227.961 64.6919 228.117 64.6609 228.274 64.5677C228.43 64.4746 228.524 64.3504 228.618 64.2261L229.025 64.4746C228.9 64.6919 228.743 64.8783 228.524 65.0025C228.274 65.0646 228.023 65.1267 227.742 65.1267ZM232.093 63.8846H229.776C229.839 64.133 229.933 64.3193 230.121 64.4435C230.308 64.5677 230.528 64.6609 230.778 64.6609C231.154 64.6609 231.404 64.5367 231.592 64.2572L231.999 64.4746C231.717 64.8783 231.31 65.0956 230.778 65.0956C230.34 65.0956 229.995 64.9714 229.714 64.6919C229.432 64.4125 229.307 64.0709 229.307 63.6672C229.307 63.2635 229.432 62.8909 229.714 62.6424C229.995 62.363 230.34 62.2387 230.747 62.2387C231.154 62.2387 231.498 62.394 231.748 62.6735C231.999 62.953 232.124 63.2945 232.124 63.6982C232.124 63.7293 232.124 63.8225 232.093 63.8846ZM230.747 62.6735C230.496 62.6735 230.277 62.7356 230.121 62.8909C229.964 63.0461 229.839 63.2324 229.808 63.4809H231.654C231.623 63.2324 231.498 63.0461 231.341 62.8909C231.154 62.7356 230.966 62.6735 230.747 62.6735ZM234.19 62.2077C234.565 62.2077 234.91 62.363 235.191 62.6424C235.473 62.9219 235.598 63.2635 235.598 63.6672C235.598 64.0709 235.473 64.4125 235.191 64.6919C234.91 64.9714 234.597 65.0956 234.19 65.0956C233.72 65.0956 233.376 64.9093 233.157 64.5367V66.1204H232.687V62.2698H233.157V62.7356C233.376 62.394 233.752 62.2077 234.19 62.2077ZM234.127 64.6609C234.409 64.6609 234.628 64.5677 234.816 64.3814C235.004 64.1951 235.098 63.9467 235.098 63.6672C235.098 63.3877 235.004 63.1703 234.816 62.953C234.628 62.7666 234.409 62.6735 234.127 62.6735C233.845 62.6735 233.626 62.7666 233.407 62.953C233.219 63.1393 233.126 63.3877 233.126 63.6672C233.126 63.9467 233.219 64.164 233.407 64.3814C233.626 64.5677 233.845 64.6609 234.127 64.6609ZM237.476 65.1267C237.069 65.1267 236.725 65.0025 236.443 64.723C236.162 64.4435 236.037 64.1019 236.037 63.6982C236.037 63.2945 236.162 62.953 236.443 62.6735C236.725 62.394 237.069 62.2698 237.476 62.2698C237.758 62.2698 238.008 62.3319 238.228 62.4561C238.447 62.5803 238.603 62.7666 238.728 62.984L238.322 63.2014C238.259 63.0461 238.134 62.9219 238.008 62.8598C237.852 62.7666 237.695 62.7356 237.508 62.7356C237.226 62.7356 237.007 62.8287 236.819 63.0151C236.631 63.2014 236.537 63.4498 236.537 63.7293C236.537 64.0088 236.631 64.2261 236.819 64.4125C237.007 64.5988 237.226 64.6919 237.508 64.6919C237.695 64.6919 237.852 64.6609 238.008 64.5677C238.165 64.4746 238.259 64.3504 238.353 64.2261L238.76 64.4746C238.635 64.6919 238.478 64.8783 238.259 65.0025C238.008 65.0646 237.758 65.1267 237.476 65.1267ZM240.2 63.6361L241.577 65.0646H240.982L239.73 63.7604V65.0646H239.261V62.3008H239.73V63.5119L240.919 62.3008H241.546L240.2 63.6361ZM244.05 62.7666V62.3008H244.519V65.0646H244.05V64.5988C243.799 64.9714 243.455 65.1577 243.017 65.1577C242.61 65.1577 242.297 65.0335 242.015 64.754C241.733 64.4746 241.608 64.133 241.608 63.7293C241.608 63.3256 241.733 62.984 242.015 62.7045C242.297 62.4251 242.61 62.2698 243.017 62.2698C243.455 62.2077 243.799 62.394 244.05 62.7666ZM243.048 64.6609C243.33 64.6609 243.549 64.5677 243.768 64.3814C243.956 64.1951 244.05 63.9467 244.05 63.6672C244.05 63.3877 243.956 63.1703 243.768 62.953C243.58 62.7666 243.33 62.6735 243.048 62.6735C242.766 62.6735 242.547 62.7666 242.359 62.953C242.172 63.1393 242.078 63.3877 242.078 63.6672C242.078 63.9467 242.172 64.164 242.359 64.3814C242.547 64.5677 242.798 64.6609 243.048 64.6609ZM246.147 62.3008H247.336V65.0646H246.867V64.0709H246.46L245.677 65.0646H245.083L245.896 64.0398C245.677 63.9777 245.521 63.8846 245.396 63.7293C245.27 63.574 245.208 63.3877 245.208 63.2014C245.208 62.953 245.302 62.7356 245.489 62.5803C245.646 62.363 245.896 62.3008 246.147 62.3008ZM246.178 63.6361H246.867V62.7356H246.178C246.053 62.7356 245.928 62.7666 245.834 62.8598C245.74 62.953 245.677 63.0461 245.677 63.1703C245.677 63.2945 245.74 63.4188 245.834 63.4809C245.928 63.574 246.022 63.6361 246.178 63.6361ZM209.806 70.3126L211.184 71.741H210.589L209.337 70.4368V71.741H208.867V68.9773H209.337V70.1884L210.526 68.9773H211.152L209.806 70.3126ZM213.719 71.3684C213.437 71.6479 213.093 71.7721 212.686 71.7721C212.279 71.7721 211.935 71.6479 211.653 71.3684C211.371 71.0889 211.246 70.7473 211.246 70.3436C211.246 69.9399 211.371 69.5984 211.653 69.3189C211.935 69.0394 212.279 68.9152 212.686 68.9152C213.093 68.9152 213.437 69.0394 213.719 69.3189C214.001 69.5984 214.157 69.9399 214.157 70.3436C214.126 70.7473 214.001 71.0889 213.719 71.3684ZM212.655 71.3063C212.936 71.3063 213.155 71.2131 213.343 71.0268C213.531 70.8405 213.625 70.592 213.625 70.3126C213.625 70.0331 213.531 69.8157 213.343 69.5983C213.155 69.412 212.936 69.3189 212.655 69.3189C212.373 69.3189 212.154 69.412 211.966 69.5983C211.778 69.7847 211.684 70.0331 211.684 70.3126C211.684 70.592 211.778 70.8094 211.966 71.0268C212.154 71.2131 212.404 71.3063 212.655 71.3063ZM216.974 68.9773H217.475V71.741H217.006V69.7536L216.129 71.151H216.066L215.19 69.7536V71.741H214.721V68.9773H215.221L216.098 70.3747L216.974 68.9773ZM218.226 68.9773H220.636V71.741H220.167V69.4431H218.727V71.741H218.258L218.226 68.9773ZM223.641 69.4431V68.9773H224.111V71.741H223.641V71.2752C223.391 71.6479 223.047 71.8342 222.608 71.8342C222.201 71.8342 221.888 71.71 221.607 71.4305C221.325 71.151 221.2 70.8094 221.2 70.4057C221.2 70.002 221.325 69.6605 221.607 69.381C221.888 69.1015 222.201 68.9462 222.608 68.9462C223.047 68.8841 223.422 69.0704 223.641 69.4431ZM222.671 71.3373C222.953 71.3373 223.172 71.2442 223.391 71.0579C223.579 70.8715 223.673 70.6231 223.673 70.3436C223.673 70.0641 223.579 69.8468 223.391 69.6294C223.203 69.4431 222.953 69.3499 222.671 69.3499C222.389 69.3499 222.17 69.4431 221.982 69.6294C221.795 69.8157 221.701 70.0641 221.701 70.3436C221.701 70.6231 221.795 70.8405 221.982 71.0579C222.139 71.2442 222.389 71.3373 222.671 71.3373ZM226.771 70.0952V68.9773H227.241V71.741H226.771V70.5921H225.332V71.741H224.862V68.9773H225.332V70.1263H226.771V70.0952ZM228.462 70.9026L229.995 68.9773H230.371V71.741H229.902V69.8157L228.368 71.741H227.992V68.9773H228.462V70.9026ZM232.03 68.9773H233.219V71.741H232.75V70.7473H232.343L231.56 71.741H230.966L231.78 70.7163C231.56 70.6542 231.404 70.561 231.279 70.4057C231.154 70.2505 231.091 70.0641 231.091 69.8778C231.091 69.6294 231.185 69.412 231.373 69.2568C231.529 69.0394 231.748 68.9773 232.03 68.9773ZM232.03 70.3126H232.719V69.412H232.03C231.905 69.412 231.78 69.4431 231.686 69.5362C231.592 69.6294 231.529 69.7226 231.529 69.8468C231.529 69.971 231.592 70.0952 231.686 70.1573C231.78 70.2505 231.905 70.3126 232.03 70.3126Z" fill="white"/>
</svg>
