<svg width="30" height="30" viewBox="0 0 30 30" fill="none" xmlns="http://www.w3.org/2000/svg">
<path d="M5.22222 24H24.7778C25.45 24 26 23.475 26 22.8333C26 22.1917 25.45 21.6667 24.7778 21.6667H5.22222C4.55 21.6667 4 22.1917 4 22.8333C4 23.475 4.55 24 5.22222 24ZM5.22222 16.1667H24.7778C25.45 16.1667 26 15.6417 26 15C26 14.3583 25.45 13.8333 24.7778 13.8333H5.22222C4.55 13.8333 4 14.3583 4 15C4 15.6417 4.55 16.1667 5.22222 16.1667ZM4 7.16667C4 7.80833 4.55 8.33333 5.22222 8.33333H24.7778C25.45 8.33333 26 7.80833 26 7.16667C26 6.525 25.45 6 24.7778 6H5.22222C4.55 6 4 6.525 4 7.16667Z" fill="black"/>
</svg>
